<mxfile host="Electron" agent="Mozilla/5.0 (Macintosh; Intel Mac OS X 10_15_7) AppleWebKit/537.36 (KHTML, like Gecko) draw.io/24.7.17 Chrome/128.0.6613.36 Electron/32.0.1 Safari/537.36" version="24.7.17">
  <diagram name="Page-1" id="XaKPT905DNTjyCouC12d">
    <mxGraphModel dx="1026" dy="772" grid="1" gridSize="10" guides="1" tooltips="1" connect="1" arrows="1" fold="1" page="1" pageScale="1" pageWidth="850" pageHeight="1100" math="0" shadow="0">
      <root>
        <mxCell id="0" />
        <mxCell id="1" parent="0" />
        <mxCell id="dFQK0nLgfF8_Lji4Rnhx-1" value="" style="rounded=1;whiteSpace=wrap;html=1;" vertex="1" parent="1">
          <mxGeometry x="40" y="40" width="300" height="310" as="geometry" />
        </mxCell>
        <mxCell id="dFQK0nLgfF8_Lji4Rnhx-2" value="Name" style="rounded=1;whiteSpace=wrap;html=1;" vertex="1" parent="1">
          <mxGeometry x="130" y="100" width="170" height="30" as="geometry" />
        </mxCell>
        <mxCell id="dFQK0nLgfF8_Lji4Rnhx-3" value="Email" style="rounded=1;whiteSpace=wrap;html=1;" vertex="1" parent="1">
          <mxGeometry x="130" y="140" width="170" height="30" as="geometry" />
        </mxCell>
        <mxCell id="dFQK0nLgfF8_Lji4Rnhx-4" value="Password" style="rounded=1;whiteSpace=wrap;html=1;" vertex="1" parent="1">
          <mxGeometry x="130" y="180" width="170" height="30" as="geometry" />
        </mxCell>
        <mxCell id="dFQK0nLgfF8_Lji4Rnhx-5" value="Confirm Password" style="rounded=1;whiteSpace=wrap;html=1;" vertex="1" parent="1">
          <mxGeometry x="130" y="220" width="170" height="30" as="geometry" />
        </mxCell>
        <mxCell id="dFQK0nLgfF8_Lji4Rnhx-6" value="Select File" style="rounded=1;whiteSpace=wrap;html=1;" vertex="1" parent="1">
          <mxGeometry x="130" y="260" width="170" height="30" as="geometry" />
        </mxCell>
        <mxCell id="dFQK0nLgfF8_Lji4Rnhx-8" value="Name" style="text;html=1;align=center;verticalAlign=middle;whiteSpace=wrap;rounded=0;" vertex="1" parent="1">
          <mxGeometry x="60" y="100" width="60" height="30" as="geometry" />
        </mxCell>
        <mxCell id="dFQK0nLgfF8_Lji4Rnhx-9" value="Email" style="text;html=1;align=center;verticalAlign=middle;whiteSpace=wrap;rounded=0;" vertex="1" parent="1">
          <mxGeometry x="60" y="140" width="60" height="30" as="geometry" />
        </mxCell>
        <mxCell id="dFQK0nLgfF8_Lji4Rnhx-10" value="Password" style="text;html=1;align=center;verticalAlign=middle;whiteSpace=wrap;rounded=0;" vertex="1" parent="1">
          <mxGeometry x="60" y="180" width="60" height="30" as="geometry" />
        </mxCell>
        <mxCell id="dFQK0nLgfF8_Lji4Rnhx-11" value="Confirm Password" style="text;html=1;align=center;verticalAlign=middle;whiteSpace=wrap;rounded=0;" vertex="1" parent="1">
          <mxGeometry x="60" y="220" width="60" height="30" as="geometry" />
        </mxCell>
        <mxCell id="dFQK0nLgfF8_Lji4Rnhx-12" value="Profile Picture" style="text;html=1;align=center;verticalAlign=middle;whiteSpace=wrap;rounded=0;" vertex="1" parent="1">
          <mxGeometry x="60" y="260" width="60" height="30" as="geometry" />
        </mxCell>
        <mxCell id="dFQK0nLgfF8_Lji4Rnhx-13" value="Register" style="rounded=1;whiteSpace=wrap;html=1;" vertex="1" parent="1">
          <mxGeometry x="70" y="300" width="230" height="30" as="geometry" />
        </mxCell>
        <mxCell id="dFQK0nLgfF8_Lji4Rnhx-14" value="Home" style="text;html=1;align=center;verticalAlign=middle;whiteSpace=wrap;rounded=0;" vertex="1" parent="1">
          <mxGeometry x="60" y="50" width="60" height="30" as="geometry" />
        </mxCell>
        <mxCell id="dFQK0nLgfF8_Lji4Rnhx-15" value="Register" style="text;html=1;align=center;verticalAlign=middle;whiteSpace=wrap;rounded=0;" vertex="1" parent="1">
          <mxGeometry x="200" y="50" width="60" height="30" as="geometry" />
        </mxCell>
        <mxCell id="dFQK0nLgfF8_Lji4Rnhx-16" value="Login" style="text;html=1;align=center;verticalAlign=middle;whiteSpace=wrap;rounded=0;" vertex="1" parent="1">
          <mxGeometry x="260" y="50" width="60" height="30" as="geometry" />
        </mxCell>
        <mxCell id="dFQK0nLgfF8_Lji4Rnhx-17" value="Register Page" style="text;html=1;align=center;verticalAlign=middle;whiteSpace=wrap;rounded=0;fontStyle=1" vertex="1" parent="1">
          <mxGeometry x="160" y="10" width="60" height="30" as="geometry" />
        </mxCell>
        <mxCell id="dFQK0nLgfF8_Lji4Rnhx-18" value="" style="rounded=1;whiteSpace=wrap;html=1;" vertex="1" parent="1">
          <mxGeometry x="490" y="40" width="300" height="220" as="geometry" />
        </mxCell>
        <mxCell id="dFQK0nLgfF8_Lji4Rnhx-20" value="Email" style="rounded=1;whiteSpace=wrap;html=1;" vertex="1" parent="1">
          <mxGeometry x="580" y="105" width="170" height="30" as="geometry" />
        </mxCell>
        <mxCell id="dFQK0nLgfF8_Lji4Rnhx-21" value="Password" style="rounded=1;whiteSpace=wrap;html=1;" vertex="1" parent="1">
          <mxGeometry x="580" y="145" width="170" height="30" as="geometry" />
        </mxCell>
        <mxCell id="dFQK0nLgfF8_Lji4Rnhx-25" value="Email" style="text;html=1;align=center;verticalAlign=middle;whiteSpace=wrap;rounded=0;" vertex="1" parent="1">
          <mxGeometry x="510" y="105" width="60" height="30" as="geometry" />
        </mxCell>
        <mxCell id="dFQK0nLgfF8_Lji4Rnhx-26" value="Password" style="text;html=1;align=center;verticalAlign=middle;whiteSpace=wrap;rounded=0;" vertex="1" parent="1">
          <mxGeometry x="510" y="145" width="60" height="30" as="geometry" />
        </mxCell>
        <mxCell id="dFQK0nLgfF8_Lji4Rnhx-29" value="Login" style="rounded=1;whiteSpace=wrap;html=1;" vertex="1" parent="1">
          <mxGeometry x="520" y="195" width="230" height="30" as="geometry" />
        </mxCell>
        <mxCell id="dFQK0nLgfF8_Lji4Rnhx-30" value="Home" style="text;html=1;align=center;verticalAlign=middle;whiteSpace=wrap;rounded=0;" vertex="1" parent="1">
          <mxGeometry x="510" y="50" width="60" height="30" as="geometry" />
        </mxCell>
        <mxCell id="dFQK0nLgfF8_Lji4Rnhx-31" value="Register" style="text;html=1;align=center;verticalAlign=middle;whiteSpace=wrap;rounded=0;" vertex="1" parent="1">
          <mxGeometry x="650" y="50" width="60" height="30" as="geometry" />
        </mxCell>
        <mxCell id="dFQK0nLgfF8_Lji4Rnhx-32" value="Login" style="text;html=1;align=center;verticalAlign=middle;whiteSpace=wrap;rounded=0;" vertex="1" parent="1">
          <mxGeometry x="710" y="50" width="60" height="30" as="geometry" />
        </mxCell>
        <mxCell id="dFQK0nLgfF8_Lji4Rnhx-33" value="Login Page" style="text;html=1;align=center;verticalAlign=middle;whiteSpace=wrap;rounded=0;fontStyle=1" vertex="1" parent="1">
          <mxGeometry x="610" y="10" width="60" height="30" as="geometry" />
        </mxCell>
        <mxCell id="dFQK0nLgfF8_Lji4Rnhx-52" value="" style="rounded=1;whiteSpace=wrap;html=1;" vertex="1" parent="1">
          <mxGeometry x="40" y="440" width="300" height="310" as="geometry" />
        </mxCell>
        <mxCell id="dFQK0nLgfF8_Lji4Rnhx-64" value="Home" style="text;html=1;align=center;verticalAlign=middle;whiteSpace=wrap;rounded=0;" vertex="1" parent="1">
          <mxGeometry x="60" y="450" width="60" height="30" as="geometry" />
        </mxCell>
        <mxCell id="dFQK0nLgfF8_Lji4Rnhx-65" value="Register" style="text;html=1;align=center;verticalAlign=middle;whiteSpace=wrap;rounded=0;" vertex="1" parent="1">
          <mxGeometry x="200" y="450" width="60" height="30" as="geometry" />
        </mxCell>
        <mxCell id="dFQK0nLgfF8_Lji4Rnhx-66" value="Login" style="text;html=1;align=center;verticalAlign=middle;whiteSpace=wrap;rounded=0;" vertex="1" parent="1">
          <mxGeometry x="260" y="450" width="60" height="30" as="geometry" />
        </mxCell>
        <mxCell id="dFQK0nLgfF8_Lji4Rnhx-67" value="Home if not login" style="text;html=1;align=center;verticalAlign=middle;whiteSpace=wrap;rounded=0;fontStyle=1" vertex="1" parent="1">
          <mxGeometry x="135" y="410" width="110" height="30" as="geometry" />
        </mxCell>
        <mxCell id="dFQK0nLgfF8_Lji4Rnhx-68" value="Wellcome to the Wakanda!" style="text;html=1;align=center;verticalAlign=middle;whiteSpace=wrap;rounded=0;" vertex="1" parent="1">
          <mxGeometry x="155" y="570" width="60" height="30" as="geometry" />
        </mxCell>
        <mxCell id="dFQK0nLgfF8_Lji4Rnhx-69" value="" style="rounded=1;whiteSpace=wrap;html=1;" vertex="1" parent="1">
          <mxGeometry x="490" y="445" width="300" height="310" as="geometry" />
        </mxCell>
        <mxCell id="dFQK0nLgfF8_Lji4Rnhx-70" value="Home" style="text;html=1;align=center;verticalAlign=middle;whiteSpace=wrap;rounded=0;" vertex="1" parent="1">
          <mxGeometry x="510" y="455" width="60" height="30" as="geometry" />
        </mxCell>
        <mxCell id="dFQK0nLgfF8_Lji4Rnhx-72" value="Shanty Kurnia Dewi" style="text;html=1;align=center;verticalAlign=middle;whiteSpace=wrap;rounded=0;" vertex="1" parent="1">
          <mxGeometry x="690" y="455" width="80" height="30" as="geometry" />
        </mxCell>
        <mxCell id="dFQK0nLgfF8_Lji4Rnhx-73" value="Home if already login" style="text;html=1;align=center;verticalAlign=middle;whiteSpace=wrap;rounded=0;fontStyle=1" vertex="1" parent="1">
          <mxGeometry x="565" y="415" width="140" height="30" as="geometry" />
        </mxCell>
        <mxCell id="dFQK0nLgfF8_Lji4Rnhx-74" value="Wellcome to the Wakanda!" style="text;html=1;align=center;verticalAlign=middle;whiteSpace=wrap;rounded=0;" vertex="1" parent="1">
          <mxGeometry x="605" y="575" width="60" height="30" as="geometry" />
        </mxCell>
        <mxCell id="dFQK0nLgfF8_Lji4Rnhx-81" value="/register" style="text;html=1;align=center;verticalAlign=middle;whiteSpace=wrap;rounded=0;" vertex="1" parent="1">
          <mxGeometry x="220" y="10" width="60" height="30" as="geometry" />
        </mxCell>
        <mxCell id="dFQK0nLgfF8_Lji4Rnhx-82" value="/login" style="text;html=1;align=center;verticalAlign=middle;whiteSpace=wrap;rounded=0;" vertex="1" parent="1">
          <mxGeometry x="710" y="10" width="60" height="30" as="geometry" />
        </mxCell>
        <mxCell id="dFQK0nLgfF8_Lji4Rnhx-83" value="/" style="text;html=1;align=center;verticalAlign=middle;whiteSpace=wrap;rounded=0;" vertex="1" parent="1">
          <mxGeometry x="245" y="410" width="60" height="30" as="geometry" />
        </mxCell>
        <mxCell id="dFQK0nLgfF8_Lji4Rnhx-84" value="/" style="text;html=1;align=center;verticalAlign=middle;whiteSpace=wrap;rounded=0;" vertex="1" parent="1">
          <mxGeometry x="700" y="415" width="60" height="30" as="geometry" />
        </mxCell>
        <mxCell id="dFQK0nLgfF8_Lji4Rnhx-85" value="" style="rounded=1;whiteSpace=wrap;html=1;" vertex="1" parent="1">
          <mxGeometry x="60" y="1250" width="280" height="230" as="geometry" />
        </mxCell>
        <mxCell id="dFQK0nLgfF8_Lji4Rnhx-86" value="div id=&quot;root&quot;" style="text;html=1;align=center;verticalAlign=middle;whiteSpace=wrap;rounded=0;" vertex="1" parent="1">
          <mxGeometry x="100" y="1220" width="200" height="30" as="geometry" />
        </mxCell>
        <mxCell id="dFQK0nLgfF8_Lji4Rnhx-87" value="Home" style="text;html=1;align=center;verticalAlign=middle;whiteSpace=wrap;rounded=0;" vertex="1" parent="1">
          <mxGeometry x="70" y="1270" width="60" height="30" as="geometry" />
        </mxCell>
        <mxCell id="dFQK0nLgfF8_Lji4Rnhx-88" value="Register" style="text;html=1;align=center;verticalAlign=middle;whiteSpace=wrap;rounded=0;" vertex="1" parent="1">
          <mxGeometry x="210" y="1270" width="60" height="30" as="geometry" />
        </mxCell>
        <mxCell id="dFQK0nLgfF8_Lji4Rnhx-89" value="Login" style="text;html=1;align=center;verticalAlign=middle;whiteSpace=wrap;rounded=0;" vertex="1" parent="1">
          <mxGeometry x="270" y="1270" width="60" height="30" as="geometry" />
        </mxCell>
        <mxCell id="dFQK0nLgfF8_Lji4Rnhx-92" style="edgeStyle=orthogonalEdgeStyle;rounded=0;orthogonalLoop=1;jettySize=auto;html=1;exitX=1;exitY=0.5;exitDx=0;exitDy=0;entryX=0;entryY=0.5;entryDx=0;entryDy=0;" edge="1" parent="1" source="dFQK0nLgfF8_Lji4Rnhx-90" target="dFQK0nLgfF8_Lji4Rnhx-91">
          <mxGeometry relative="1" as="geometry" />
        </mxCell>
        <mxCell id="dFQK0nLgfF8_Lji4Rnhx-90" value="Home" style="rounded=1;whiteSpace=wrap;html=1;" vertex="1" parent="1">
          <mxGeometry x="90" y="1320" width="230" height="130" as="geometry" />
        </mxCell>
        <mxCell id="dFQK0nLgfF8_Lji4Rnhx-91" value="Outlet" style="text;html=1;align=center;verticalAlign=middle;whiteSpace=wrap;rounded=0;" vertex="1" parent="1">
          <mxGeometry x="410" y="1370" width="60" height="30" as="geometry" />
        </mxCell>
      </root>
    </mxGraphModel>
  </diagram>
</mxfile>
